<svg xmlns="http://www.w3.org/2000/svg" viewBox="0 0 24 24" fill="currentColor">
  <path d="M12 1.5a10.5 10.5 0 00-3.1.47l-.5-.49a1.5 1.5 0 00-2.12 0l-.35.35A10.45 10.45 0 004.5 6.27v.65l-.37.36a1.5 1.5 0 000 2.12l.5.5A10.5 10.5 0 002.5 12c0 .72.07 1.43.2 2.12l-.5.5a1.5 1.5 0 000 2.12l.36.36v.65a10.45 10.45 0 002.77 4.06l.35.35a1.5 1.5 0 002.12 0l.5-.5a10.5 10.5 0 004.06 1.9v.5a1.5 1.5 0 001.5 1.5h1a1.5 1.5 0 001.5-1.5v-.5a10.5 10.5 0 004.06-1.9l.5.5a1.5 1.5 0 002.12 0l.35-.35a10.45 10.45 0 002.77-4.06v-.65l.36-.36a1.5 1.5 0 000-2.12l-.5-.5c.13-.69.2-1.4.2-2.12s-.07-1.43-.2-2.12l.5-.5a1.5 1.5 0 000-2.12l-.36-.36v-.65a10.45 10.45 0 00-2.77-4.06l-.35-.35a1.5 1.5 0 00-2.12 0l-.5.5a10.5 10.5 0 00-4.06-1.9V3a1.5 1.5 0 00-1.5-1.5h-1a1.5 1.5 0 00-1.5 1.5v.5a10.5 10.5 0 00-3.1-.47zM12 8a4 4 0 110 8 4 4 0 010-8z"/>
</svg>
